<svg width="10" height="10" viewBox="0 0 10 10" fill="none" xmlns="http://www.w3.org/2000/svg">
<path d="M1.66667 2.49996V6.66663H3.75V4.99996C3.75 4.77895 3.8378 4.56698 3.99408 4.4107C4.15036 4.25442 4.36232 4.16663 4.58333 4.16663H6.66667C6.88768 4.16663 7.09964 4.25442 7.25592 4.4107C7.4122 4.56698 7.5 4.77895 7.5 4.99996V6.66663H8.33333V2.49996H1.66667ZM0 8.33329V7.49996H1.66667C1.44565 7.49996 1.23369 7.41216 1.07741 7.25588C0.921131 7.0996 0.833333 6.88764 0.833333 6.66663V2.49996C0.833333 2.27895 0.921131 2.06698 1.07741 1.9107C1.23369 1.75442 1.44565 1.66663 1.66667 1.66663H8.33333C8.55435 1.66663 8.76631 1.75442 8.92259 1.9107C9.07887 2.06698 9.16667 2.27895 9.16667 2.49996V6.66663C9.16667 6.88764 9.07887 7.0996 8.92259 7.25588C8.76631 7.41216 8.55435 7.49996 8.33333 7.49996H10V8.33329H7.5C7.5 8.55431 7.4122 8.76627 7.25592 8.92255C7.09964 9.07883 6.88768 9.16663 6.66667 9.16663H4.58333C4.36232 9.16663 4.15036 9.07883 3.99408 8.92255C3.8378 8.76627 3.75 8.55431 3.75 8.33329H0ZM4.79167 8.33329C4.73641 8.33329 4.68342 8.35524 4.64435 8.39431C4.60528 8.43338 4.58333 8.48637 4.58333 8.54163C4.58333 8.59688 4.60528 8.64987 4.64435 8.68894C4.68342 8.72801 4.73641 8.74996 4.79167 8.74996C4.84692 8.74996 4.89991 8.72801 4.93898 8.68894C4.97805 8.64987 5 8.59688 5 8.54163C5 8.48637 4.97805 8.43338 4.93898 8.39431C4.89991 8.35524 4.84692 8.33329 4.79167 8.33329ZM6.45833 8.33329C6.40308 8.33329 6.35009 8.35524 6.31102 8.39431C6.27195 8.43338 6.25 8.48637 6.25 8.54163C6.25 8.59688 6.27195 8.64987 6.31102 8.68894C6.35009 8.72801 6.40308 8.74996 6.45833 8.74996C6.51359 8.74996 6.56658 8.72801 6.60565 8.68894C6.64472 8.64987 6.66667 8.59688 6.66667 8.54163C6.66667 8.48637 6.64472 8.43338 6.60565 8.39431C6.56658 8.35524 6.51359 8.33329 6.45833 8.33329ZM5.41667 8.33329V8.74996H5.83333V8.33329H5.41667ZM4.58333 4.99996V7.91663H6.66667V4.99996H4.58333Z" fill="#69B99D"/>
</svg>
