<svg width="80" height="80" viewBox="0 0 80 80" fill="none" xmlns="http://www.w3.org/2000/svg">
<path d="M13.3333 19.9997V53.333H30V39.9997C30 38.2316 30.7024 36.5359 31.9526 35.2856C33.2029 34.0354 34.8986 33.333 36.6667 33.333H53.3333C55.1014 33.333 56.7971 34.0354 58.0474 35.2856C59.2976 36.5359 60 38.2316 60 39.9997V53.333H66.6667V19.9997H13.3333ZM0 66.6663V59.9997H13.3333C11.5652 59.9997 9.86953 59.2973 8.61929 58.047C7.36905 56.7968 6.66667 55.1011 6.66667 53.333V19.9997C6.66667 18.2316 7.36905 16.5359 8.61929 15.2856C9.86953 14.0354 11.5652 13.333 13.3333 13.333H66.6667C68.4348 13.333 70.1305 14.0354 71.3807 15.2856C72.6309 16.5359 73.3333 18.2316 73.3333 19.9997V53.333C73.3333 55.1011 72.6309 56.7968 71.3807 58.047C70.1305 59.2973 68.4348 59.9997 66.6667 59.9997H80V66.6663H60C60 68.4345 59.2976 70.1301 58.0474 71.3804C56.7971 72.6306 55.1014 73.333 53.3333 73.333H36.6667C34.8986 73.333 33.2029 72.6306 31.9526 71.3804C30.7024 70.1301 30 68.4345 30 66.6663H0ZM38.3333 66.6663C37.8913 66.6663 37.4674 66.8419 37.1548 67.1545C36.8423 67.4671 36.6667 67.891 36.6667 68.333C36.6667 68.775 36.8423 69.199 37.1548 69.5115C37.4674 69.8241 37.8913 69.9997 38.3333 69.9997C38.7754 69.9997 39.1993 69.8241 39.5118 69.5115C39.8244 69.199 40 68.775 40 68.333C40 67.891 39.8244 67.4671 39.5118 67.1545C39.1993 66.8419 38.7754 66.6663 38.3333 66.6663ZM51.6667 66.6663C51.2246 66.6663 50.8007 66.8419 50.4882 67.1545C50.1756 67.4671 50 67.891 50 68.333C50 68.775 50.1756 69.199 50.4882 69.5115C50.8007 69.8241 51.2246 69.9997 51.6667 69.9997C52.1087 69.9997 52.5326 69.8241 52.8452 69.5115C53.1577 69.199 53.3333 68.775 53.3333 68.333C53.3333 67.891 53.1577 67.4671 52.8452 67.1545C52.5326 66.8419 52.1087 66.6663 51.6667 66.6663ZM43.3333 66.6663V69.9997H46.6667V66.6663H43.3333ZM36.6667 39.9997V63.333H53.3333V39.9997H36.6667Z" fill="#846AB9"/>
</svg>
