<svg width="54" height="68" viewBox="0 0 54 68" fill="none" xmlns="http://www.w3.org/2000/svg">
<path d="M43.6667 24V17.3333C43.6667 7.99996 36.3333 0.666626 27 0.666626C17.6667 0.666626 10.3333 7.99996 10.3333 17.3333V24C4.66667 24 0.333334 28.3333 0.333334 34V57.3333C0.333334 63 4.66667 67.3333 10.3333 67.3333H43.6667C49.3333 67.3333 53.6667 63 53.6667 57.3333V34C53.6667 28.3333 49.3333 24 43.6667 24ZM17 17.3333C17 11.6666 21.3333 7.33329 27 7.33329C32.6667 7.33329 37 11.6666 37 17.3333V24H17V17.3333ZM30.6667 45.6666L30.3333 46V50.6666C30.3333 52.6666 29 54 27 54C25 54 23.6667 52.6666 23.6667 50.6666V46C21.6667 44 21.3333 41 23.3333 39C25.3333 37 28.3333 36.6666 30.3333 38.6666C32.3333 40.3333 32.6667 43.6666 30.6667 45.6666Z" fill="#846AB9"/>
</svg>
