<svg width="60" height="64" viewBox="0 0 60 64" fill="none" xmlns="http://www.w3.org/2000/svg">
<path d="M24 16C24 9.6 27.2 4 32 0H28C12.4 0 0 3.6 0 8C0 12 10.4 15.2 24 16ZM39.2 35.2C35.6 35.6 31.6 36 28 36C12.4 36 0 32.4 0 28V40C0 44.4 12.4 48 28 48C43.6 48 56 44.4 56 40V32C52.4 34.8 48.4 36 44 36C42.4 36 40.8 35.6 39.2 35.2ZM28 52C12.4 52 0 48.4 0 44V56C0 60.4 12.4 64 28 64C43.6 64 56 60.4 56 56V44C56 48.4 43.6 52 28 52ZM28 32H32C28 29.2 25.2 24.8 24.4 20C10.8 19.6 0 16 0 12V24C0 28.4 12.4 32 28 32ZM44 32C52.8 32 60 24.8 60 16C60 7.2 52.8 0 44 0C35.2 0 28 7.2 28 16C28 24.8 35.2 32 44 32ZM34.8 14.4L41.6 21.2L53.2 9.6L56 12.4L41.6 26.8L32 17.2L34.8 14.4Z" fill="#846AB9"/>
</svg>
